<svg viewBox="0 0 416 250.44633814199656" height="250.44633814199656" width="416" style="width: 416px; height: 250.446px; position: absolute; top: 50%; left: 50%; transform: translate(-50%, -50%) scale(0.991587); z-index: 0; cursor: pointer;"><defs id="SvgjsDefs4681"><linearGradient id="SvgjsLinearGradient4690"><stop id="SvgjsStop4691" stop-color="#8f5e25" offset="0"></stop><stop id="SvgjsStop4692" stop-color="#fbf4a1" offset="0.5"></stop><stop id="SvgjsStop4693" stop-color="#8f5e25" offset="1"></stop></linearGradient><linearGradient id="SvgjsLinearGradient4694"><stop id="SvgjsStop4695" stop-color="#8f5e25" offset="0"></stop><stop id="SvgjsStop4696" stop-color="#fbf4a1" offset="0.5"></stop><stop id="SvgjsStop4697" stop-color="#8f5e25" offset="1"></stop></linearGradient><linearGradient id="SvgjsLinearGradient4698"><stop id="SvgjsStop4699" stop-color="#8f5e25" offset="0"></stop><stop id="SvgjsStop4700" stop-color="#fbf4a1" offset="0.5"></stop><stop id="SvgjsStop4701" stop-color="#8f5e25" offset="1"></stop></linearGradient><linearGradient id="SvgjsLinearGradient4702"><stop id="SvgjsStop4703" stop-color="#8f5e25" offset="0"></stop><stop id="SvgjsStop4704" stop-color="#fbf4a1" offset="0.5"></stop><stop id="SvgjsStop4705" stop-color="#8f5e25" offset="1"></stop></linearGradient></defs><g id="SvgjsG4682" featurekey="symbolContainer" transform="matrix(0.7134817242622375,0,0,0.7134817242622375,0,52)" fill="url(#SvgjsLinearGradient4690)"><path xmlns="http://www.w3.org/2000/svg" d="M102.174 199.588c53.8 0 97.413-43.613 97.413-97.413S155.974 4.762 102.174 4.762 4.761 48.375 4.761 102.175s43.614 97.413 97.413 97.413zm0-189.826c50.957 0 92.413 41.457 92.413 92.413s-41.456 92.413-92.413 92.413c-50.957 0-92.413-41.457-92.413-92.413S51.218 9.762 102.174 9.762z"></path><path xmlns="http://www.w3.org/2000/svg" d="M102.174 191.585c49.38 0 89.41-40.03 89.41-89.41s-40.03-89.41-89.41-89.41c-49.38 0-89.41 40.03-89.41 89.41s40.03 89.41 89.41 89.41zm0-176.82c48.198 0 87.41 39.212 87.41 87.41s-39.212 87.41-87.41 87.41c-48.198 0-87.41-39.212-87.41-87.41s39.212-87.41 87.41-87.41z"></path><path xmlns="http://www.w3.org/2000/svg" d="M102.174 204.35c56.339 0 102.174-45.835 102.174-102.175S158.513 0 102.174 0C45.835 0 0 45.835 0 102.175S45.835 204.35 102.174 204.35zm0-202.35c55.236 0 100.174 44.938 100.174 100.175S157.411 202.35 102.174 202.35C46.938 202.35 2 157.411 2 102.175S46.938 2 102.174 2z"></path></g><g id="SvgjsG4683" featurekey="monogramFeature-0" transform="matrix(1.947690725326538,0,0,1.947690725326538,38.35059420227555,48.5909867424936)" fill="url(#SvgjsLinearGradient4694)"><path d="M28.98 46.32 c-3.78 2.46 -5.64 3.18 -8.22 3.18 c-1.8 0 -3.48 -0.48 -5.1 -1.44 c-3.18 -1.92 -5.34 -5.4 -5.34 -9 c0 -1.92 0.48 -3.72 1.44 -5.34 c1.86 -3.24 5.4 -5.16 9 -5.16 c2.28 0 4.32 0.66 6.06 1.92 c0.3 0.18 0.66 0.42 1.08 0.84 l0.9 0.66 l4.02 -4.74 l-0.66 -0.66 c-0.42 -0.42 -0.96 -0.78 -1.62 -1.2 c-2.82 -2.16 -6.12 -3.24 -9.78 -3.24 c-4.5 0 -8.64 1.74 -11.94 4.92 c-3.18 3.36 -4.98 7.5 -4.98 12 s1.8 8.76 4.98 11.94 s7.44 4.98 11.94 4.98 c3.24 0 6.24 -0.9 9.06 -2.7 l-1.2 -1.8 c-2.46 1.62 -5.04 2.4 -7.86 2.4 c-3.9 0 -7.62 -1.56 -10.44 -4.38 s-4.32 -6.54 -4.32 -10.44 s1.5 -7.56 4.32 -10.38 c2.82 -2.88 6.54 -4.38 10.44 -4.38 c2.94 0 5.76 0.9 8.58 2.76 l0.48 0.42 l-1.32 1.5 c-0.18 -0.06 -0.3 -0.12 -0.42 -0.24 c-2.22 -1.5 -4.68 -2.28 -7.32 -2.28 c-2.34 0 -4.44 0.54 -6.3 1.62 c-3.78 2.22 -6.3 6.6 -6.3 10.98 c0 2.1 0.6 4.2 1.74 6.18 c2.34 4.02 6.6 6.48 10.86 6.48 c2.82 0 5.1 -0.84 8.52 -3 l3.36 4.98 c-4.38 2.88 -7.8 4.08 -11.88 4.08 c-3.36 0 -6.48 -0.84 -9.36 -2.52 c-5.82 -3.36 -9.42 -9.48 -9.42 -16.2 c0 -3.36 0.84 -6.48 2.52 -9.42 c3.36 -5.76 9.54 -9.36 16.26 -9.36 c4.74 0 9.24 1.74 12.66 4.92 l0.36 0.3 l0.48 0.48 l1.5 -1.56 l-0.84 -0.84 c-3.84 -3.42 -8.88 -5.4 -14.16 -5.4 c-3.78 0 -7.26 0.9 -10.44 2.76 c-6.36 3.66 -10.5 10.68 -10.5 18.12 c0 3.66 0.96 7.14 2.88 10.38 c3.78 6.48 10.56 10.56 18.06 10.56 c4.74 0 8.7 -1.5 14.04 -5.16 l0.84 -0.54 l-5.7 -8.58 z"></path></g><g id="SvgjsG4684" featurekey="nameFeature-0" transform="matrix(5.830223560333252,0,0,5.830223560333252,147.11006531156548,-77.19216648199607)" fill="url(#SvgjsLinearGradient4698)"><path d="M16.28 30.759999999999998 l0 -1.24 c0 -0.2 0.16 -0.36 0.36 -0.36 l4.56 0 c0.2 0 0.36 0.16 0.36 0.36 l0 2.52 c0 5.88 -3.16 8.36 -9.12 8.36 c-5.56 0 -9.2 -2.2 -9.2 -8.36 l0 -10.52 c0 -5.92 3.24 -8.28 9.2 -8.28 c5.64 0 9.12 2.16 9.12 8.28 l0 0.84 c0 0.2 -0.16 0.36 -0.36 0.36 l-4.6 0 c-0.2 0 -0.36 -0.16 -0.36 -0.36 l0 -0.64 c0 -2.2 -1.64 -3.12 -3.6 -3.12 l-0.48 0 c-1.32 0 -2.2 0.36 -2.8 1.16 c-0.56 0.76 -0.76 1.76 -0.76 3.08 l0 7.92 c0 3.48 1.96 4.24 3.56 4.24 l0.48 0 c2.52 0 3.56 -1.68 3.64 -4.24 z M12.36 15.719999999999999 c-4.28 0 -6.76 1.52 -6.76 6.4 l0 9.64 c0 4.44 2.28 6.08 6.76 6.08 c4.2 0 6.72 -1.52 6.72 -6.12 c0 -0.32 -0.48 -0.32 -0.48 0 c0 4.04 -2.2 5.68 -6.24 5.68 c-3.92 0 -6.32 -1.36 -6.32 -5.64 l0 -9.64 c0 -4.16 1.96 -5.96 6.32 -5.96 c5.68 0 5.88 3.6 5.88 4 c0 0.36 0.56 0.4 0.56 0 c0 -3.32 -3.36 -4.44 -6.44 -4.44 z M40.84 30.759999999999998 l0 -1.24 c0 -0.2 0.16 -0.36 0.36 -0.36 l4.56 0 c0.2 0 0.36 0.16 0.36 0.36 l0 2.52 c0 5.88 -3.16 8.36 -9.12 8.36 c-5.56 0 -9.2 -2.2 -9.2 -8.36 l0 -10.52 c0 -5.92 3.24 -8.28 9.2 -8.28 c5.64 0 9.12 2.16 9.12 8.28 l0 0.84 c0 0.2 -0.16 0.36 -0.36 0.36 l-4.6 0 c-0.2 0 -0.36 -0.16 -0.36 -0.36 l0 -0.64 c0 -2.2 -1.64 -3.12 -3.6 -3.12 l-0.48 0 c-1.32 0 -2.2 0.36 -2.8 1.16 c-0.56 0.76 -0.76 1.76 -0.76 3.08 l0 7.92 c0 3.48 1.96 4.24 3.56 4.24 l0.48 0 c2.52 0 3.56 -1.68 3.64 -4.24 z M36.92 15.719999999999999 c-4.28 0 -6.76 1.52 -6.76 6.4 l0 9.64 c0 4.44 2.28 6.08 6.76 6.08 c4.2 0 6.72 -1.52 6.72 -6.12 c0 -0.32 -0.48 -0.32 -0.48 0 c0 4.04 -2.2 5.68 -6.24 5.68 c-3.92 0 -6.32 -1.36 -6.32 -5.64 l0 -9.64 c0 -4.16 1.96 -5.96 6.32 -5.96 c5.68 0 5.88 3.6 5.88 4 c0 0.36 0.56 0.4 0.56 0 c0 -3.32 -3.36 -4.44 -6.44 -4.44 z"></path></g><g id="SvgjsG4685" featurekey="sloganFeature-0" transform="matrix(5.128896236419678,0,0,5.128896236419678,160.85970594414806,147.76583562798132)" fill="url(#SvgjsLinearGradient4702)"><path d="M1.02 6.539999999999999 c0 0.96 -0.04 11.28 0 12.2 c0.02 0.22 0.02 0.44 0.02 0.66 c0 0.16 0.1 0.26 0.24 0.32 c0.12 0.04 0.28 0.08 0.4 0.08 c0.58 -0.06 1.2 0 1.8 -0.02 c1.04 0.08 1.98 -0.16 2.88 -0.64 c0.84 -0.48 1.3 -1.34 1.62 -2.24 c0.26 -0.76 0.22 -1.66 0.08 -2.44 c-0.12 -0.7 -0.44 -1.38 -0.86 -1.94 c-0.06 -0.08 -0.92 -0.62 -0.88 -0.66 c0.52 -0.74 1.26 -1.36 1.36 -2.28 c0.08 -0.8 -0.1 -1.62 -0.38 -2.36 c-0.18 -0.48 -0.42 -0.94 -0.8 -1.3 c-0.64 -0.6 -1.6 -0.86 -2.44 -0.94 c-0.86 -0.08 -1.66 -0.02 -2.52 -0.06 c-0.3 0 -0.44 0.12 -0.44 0.44 c0 0.42 -0.08 0.76 -0.08 1.18 z M3.48 10.18 c-0.02 -0.22 0 -1.98 -0.04 -2.64 c-0.02 -0.24 0.12 -0.36 0.38 -0.3 c0.2 0.04 0.36 0.06 0.52 0.18 c0.5 0.38 0.88 0.84 0.9 1.48 c0 0.32 0 0.64 -0.12 0.94 c-0.14 0.36 -0.34 0.64 -0.7 0.82 c-0.24 0.12 -0.46 0.26 -0.7 0.36 c-0.12 0.04 -0.24 -0.02 -0.26 -0.14 c0 -0.24 0.02 -0.7 0.02 -0.7 z M5.48 15.48 c0 0.1 -0.02 0.28 -0.02 0.46 c-0.02 0.6 -0.8 1.36 -1.7 1.38 c-0.06 0 -0.16 -0.06 -0.18 -0.12 c-0.04 -0.12 -0.08 -0.26 -0.08 -0.4 c-0.02 -0.62 0 -1.22 0 -1.88 c0.06 -0.42 0.02 -0.86 0.02 -1.3 c0.02 -0.34 0.1 -0.4 0.42 -0.46 c0.48 -0.06 0.92 0.14 1.14 0.52 c0.26 0.46 0.36 0.96 0.4 1.48 l0 0.32 z M22.945999999999998 8.68 c0.42 1.24 0.52 2.58 0.52 3.9 c0 1.1 -0.2 2.16 -0.48 3.22 c-0.36 1.26 -0.96 2.4 -2.04 3.14 c-0.8 0.58 -1.64 0.96 -2.62 1.06 c-0.14 0 -0.26 0.02 -0.4 0.02 c-0.12 0 -0.24 -0.02 -0.38 -0.02 c-0.98 -0.1 -1.82 -0.48 -2.64 -1.06 c-1.06 -0.74 -1.68 -1.88 -2.02 -3.14 c-0.3 -1.06 -0.48 -2.12 -0.48 -3.22 c0 -1.32 0.1 -2.66 0.52 -3.9 c0.74 -2.14 2.78 -3.66 5 -3.7 c2.22 0.04 4.26 1.56 5.02 3.7 z M21.006 14.04 c0.2 -1.22 0.12 -2.46 -0.12 -3.68 c-0.24 -1.1 -0.72 -2.18 -1.64 -2.84 c-0.16 -0.12 -0.34 -0.22 -0.52 -0.28 c-0.26 -0.12 -0.54 -0.16 -0.8 -0.16 s-0.52 0.04 -0.78 0.16 c-0.2 0.06 -0.36 0.16 -0.52 0.28 c-0.94 0.66 -1.42 1.74 -1.64 2.84 c-0.24 1.22 -0.32 2.46 -0.12 3.68 c0.2 1.1 0.6 2.58 1.64 3.14 c0.44 0.24 0.92 0.4 1.42 0.42 c0.5 -0.02 1 -0.18 1.44 -0.42 c1.04 -0.56 1.44 -2.04 1.64 -3.14 z M30.232 17.82 c0.02 0.62 0.02 1.24 0.04 1.86 c0 0.28 0.02 0.32 0.3 0.32 l1.8 0 c0.38 0 0.3 -0.64 0.28 -0.98 l0.06 -11.2 c0 -0.3 0.1 -0.4 0.5 -0.4 l1.76 0 c0.42 0 0.32 -0.72 0.32 -1.22 c0 -0.44 0.16 -1.2 -0.32 -1.2 c-0.34 0 -3.6 0 -4.94 0.02 c-0.66 0 -1.2 -0.02 -1.86 -0.02 c-0.5 0 -0.48 0.4 -0.48 1.28 c0 0.56 -0.02 1.12 0.46 1.12 c0.28 0 1.42 0 1.74 0.02 c0.2 0 0.34 0.06 0.38 0.28 c0 0.06 0.02 0.12 0.02 0.18 c0 1.44 -0.1 8.14 -0.06 9.94 z"></path></g></svg>
