<svg viewBox="0 0 200 206.62185617936532" height="206.62185617936532" width="200" style="width: 200px; height: 206.622px; position: absolute; top: 50%; left: 50%; transform: translate(-50%, -50%) scale(1.04539); z-index: 0; cursor: pointer;"><defs id="SvgjsDefs4506"><linearGradient id="SvgjsLinearGradient4513"><stop id="SvgjsStop4514" stop-color="#8f5e25" offset="0"></stop><stop id="SvgjsStop4515" stop-color="#fbf4a1" offset="0.5"></stop><stop id="SvgjsStop4516" stop-color="#8f5e25" offset="1"></stop></linearGradient><linearGradient id="SvgjsLinearGradient4517"><stop id="SvgjsStop4518" stop-color="#8f5e25" offset="0"></stop><stop id="SvgjsStop4519" stop-color="#fbf4a1" offset="0.5"></stop><stop id="SvgjsStop4520" stop-color="#8f5e25" offset="1"></stop></linearGradient><linearGradient id="SvgjsLinearGradient4521"><stop id="SvgjsStop4522" stop-color="#8f5e25" offset="0"></stop><stop id="SvgjsStop4523" stop-color="#fbf4a1" offset="0.5"></stop><stop id="SvgjsStop4524" stop-color="#8f5e25" offset="1"></stop></linearGradient></defs><g id="SvgjsG4507" featurekey="symbolFeature-0" transform="matrix(1.1369450092315674,0,0,1.1369450092315674,43.12716735779817,-38.615200949165875)" fill="url(#SvgjsLinearGradient4513)"><line xmlns="http://www.w3.org/2000/svg" fill="url(#SvgjsLinearGradient4513)" stroke="url(#SvgjsLinearGradient4513)" stroke-width="2" stroke-linecap="round" stroke-linejoin="round" stroke-miterlimit="10" x1="44.044" y1="34" x2="56.045" y2="66.036"></line><line xmlns="http://www.w3.org/2000/svg" fill="url(#SvgjsLinearGradient4513)" stroke="url(#SvgjsLinearGradient4513)" stroke-width="2" stroke-linecap="round" stroke-miterlimit="10" x1="56.045" y1="66.036" x2="68.033" y2="34"></line><line xmlns="http://www.w3.org/2000/svg" fill="url(#SvgjsLinearGradient4513)" stroke="url(#SvgjsLinearGradient4513)" stroke-width="2" stroke-linecap="round" stroke-miterlimit="10" x1="68.033" y1="34" x2="80.045" y2="66.036"></line><line xmlns="http://www.w3.org/2000/svg" fill="url(#SvgjsLinearGradient4513)" stroke="url(#SvgjsLinearGradient4513)" stroke-width="2" stroke-linecap="round" stroke-miterlimit="10" x1="14.044" y1="50" x2="20.044" y2="33.964"></line><line xmlns="http://www.w3.org/2000/svg" fill="url(#SvgjsLinearGradient4513)" stroke="url(#SvgjsLinearGradient4513)" stroke-width="2" stroke-linecap="round" stroke-miterlimit="10" x1="80.045" y1="66" x2="86.045" y2="49.964"></line><line xmlns="http://www.w3.org/2000/svg" fill="url(#SvgjsLinearGradient4513)" stroke="url(#SvgjsLinearGradient4513)" stroke-width="2" stroke-linecap="round" stroke-miterlimit="10" x1="20.044" y1="33.964" x2="32.044" y2="66"></line><line xmlns="http://www.w3.org/2000/svg" fill="url(#SvgjsLinearGradient4513)" stroke="url(#SvgjsLinearGradient4513)" stroke-width="2" stroke-linecap="round" stroke-linejoin="round" stroke-miterlimit="10" x1="32.044" y1="66" x2="44.033" y2="33.964"></line><line xmlns="http://www.w3.org/2000/svg" fill="url(#SvgjsLinearGradient4513)" stroke="url(#SvgjsLinearGradient4513)" stroke-width="2" stroke-linecap="round" stroke-linejoin="round" stroke-miterlimit="10" x1="14.044" y1="49.946" x2="6.045" y2="49.946"></line><line xmlns="http://www.w3.org/2000/svg" fill="url(#SvgjsLinearGradient4513)" stroke="url(#SvgjsLinearGradient4513)" stroke-width="2" stroke-linecap="round" stroke-linejoin="round" stroke-miterlimit="10" x1="94" y1="49.946" x2="86" y2="49.946"></line></g><g id="SvgjsG4508" featurekey="nameFeature-0" transform="matrix(2.8214597702026367,0,0,2.8214597702026367,-9.417958219483058,6.95593331106825)" fill="url(#SvgjsLinearGradient4517)"><path d="M34.859 35.3 l0.080272 4.6484 l-2.3241 0.04004 c-0.030078 0.0005078 -2.055 0.034258 -6.0152 0.034258 c-2.0063 0 -4.5092 -0.0089064 -7.5012 -0.034805 c-4.8264 -0.042108 -8.6856 -1.0842 -11.47 -3.0979 c-2.767 -2.0014 -4.2908 -4.9124 -4.2908 -8.1972 c0 -3.2826 1.5371 -6.2004 4.328 -8.2148 c2.766 -1.9969 6.7232 -3.0621 11.444 -3.0804 c8.882 -0.034258 13.438 0.00054688 13.483 0.00082032 l2.3244 0.01832 l-0.036641 4.6492 l-2.3244 -0.01832 c-0.044728 -0.0005078 -4.5784 -0.035039 -13.429 -0.00078124 c-6.8716 0.02668 -11.14 2.5732 -11.14 6.6464 c0 1.8039 0.79624 3.2946 2.3662 4.43 c1.9587 1.4167 4.9968 2.1832 8.7852 2.2161 c8.8288 0.077148 13.352 0.0017969 13.396 0.0010156 z M74.143 35.3 l0.080272 4.6484 l-2.3241 0.04004 c-0.030078 0.0005078 -2.055 0.034258 -6.0152 0.034258 c-2.0063 0 -4.5092 -0.0089064 -7.5012 -0.034805 c-4.8264 -0.042108 -8.6856 -1.0842 -11.47 -3.0979 c-2.767 -2.0014 -4.2908 -4.9124 -4.2908 -8.1972 c0 -3.2826 1.5371 -6.2004 4.328 -8.2148 c2.766 -1.9969 6.7232 -3.0621 11.444 -3.0804 c8.882 -0.034258 13.438 0.00054688 13.483 0.00082032 l2.3244 0.01832 l-0.036641 4.6492 l-2.3244 -0.01832 c-0.044728 -0.0005078 -4.5784 -0.035039 -13.429 -0.00078124 c-6.8716 0.02668 -11.14 2.5732 -11.14 6.6464 c0 1.8039 0.79624 3.2946 2.3662 4.43 c1.9587 1.4167 4.9968 2.1832 8.7852 2.2161 c8.8288 0.077148 13.352 0.0017969 13.396 0.0010156 z"></path></g><g id="SvgjsG4509" featurekey="sloganFeature-0" transform="matrix(4.593977451324463,0,0,4.593977451324463,-8.389981710416476,113.84505656820188)" fill="url(#SvgjsLinearGradient4521)"><path d="M9.4043 12.5488 c1.5918 0.43945 2.6563 1.4844 2.6563 3.4961 c0 2.3828 -1.4453 3.9551 -4.4238 3.9551 l-5.8105 0 l0 -14.111 l4.5703 0 c3.0469 0 4.6484 1.4648 4.6484 3.8672 c0 1.2402 -0.53711 2.2559 -1.6406 2.793 z M6.4258 8.32 l-1.7773 0 l0 3.3203 l1.9043 0 c1.25 0 1.7969 -0.74219 1.7969 -1.6992 c0 -0.9375 -0.61523 -1.6211 -1.9238 -1.6211 z M7.0898 17.4902 c1.582 0 2.1289 -0.84961 2.1289 -1.7676 c0 -0.9375 -0.53711 -1.8262 -2.1875 -1.8262 l-2.3828 0 l0 3.5938 l2.4414 0 z M24.0967078125 20.19531 c-4.1504 0 -7.2168 -2.832 -7.2168 -7.2559 c0 -4.4336 3.0664 -7.2461 7.2168 -7.2461 c4.1406 0 7.207 2.8125 7.207 7.2461 c0 4.4238 -3.0664 7.2559 -7.207 7.2559 z M24.0967078125 17.5098 c2.4316 0 4.2969 -1.709 4.2969 -4.5703 c0 -2.8516 -1.8652 -4.5508 -4.2969 -4.5508 s-4.2969 1.6992 -4.2969 4.5508 c0 2.8613 1.8652 4.5703 4.2969 4.5703 z M45.3615625 5.888999999999999 l0 2.5781 l-3.3496 0 l0 11.533 l-2.9004 0 l0 -11.533 l-3.3691 0 l0 -2.5781 l9.6191 0 z"></path></g></svg>
